<svg xmlns="http://www.w3.org/2000/svg" viewBox="0 0 960 540" width="960" height="540">
  <defs>
    <linearGradient id="room" x1="0" x2="0" y1="0" y2="1">
      <stop offset="0%" stop-color="#5c4a37"/>
      <stop offset="100%" stop-color="#2f271f"/>
    </linearGradient>
    <linearGradient id="floor" x1="0" x2="0" y1="0" y2="1">
      <stop offset="0%" stop-color="#473626"/>
      <stop offset="100%" stop-color="#302318"/>
    </linearGradient>
    <radialGradient id="clockGlow" cx="0.54" cy="0.44" r="0.3">
      <stop offset="0%" stop-color="#f6dfb7" stop-opacity="0.34"/>
      <stop offset="100%" stop-color="#f6dfb7" stop-opacity="0"/>
    </radialGradient>
  </defs>

  <rect width="960" height="540" fill="url(#room)"/>
  <rect y="390" width="960" height="150" fill="url(#floor)"/>

  <rect x="62" y="130" width="128" height="306" rx="12" fill="#46382b"/>
  <rect x="86" y="170" width="80" height="236" rx="8" fill="#261d16"/>

  <circle cx="510" cy="240" r="134" fill="#3c2e22" stroke="#b9976a" stroke-width="12"/>
  <circle cx="510" cy="240" r="86" fill="#d3bb95" stroke="#f2dfbe" stroke-width="8"/>
  <circle cx="510" cy="240" r="12" fill="#5f4529"/>
  <line x1="510" y1="240" x2="510" y2="188" stroke="#5d4324" stroke-width="10" stroke-linecap="round"/>
  <line x1="510" y1="240" x2="552" y2="240" stroke="#5d4324" stroke-width="10" stroke-linecap="round"/>
  <path d="M510 138V154M510 326V342M408 240H424M596 240H612" stroke="#f4e6ce" stroke-width="6" stroke-linecap="round"/>

  <rect x="214" y="284" width="238" height="136" rx="12" fill="#6f5338"/>
  <rect x="238" y="308" width="190" height="22" rx="8" fill="#8b6b4a"/>
  <circle cx="358" cy="350" r="20" fill="#9cadb8"/>
  <rect x="280" y="344" width="48" height="12" rx="6" fill="#e7c899"/>

  <rect x="534" y="198" width="214" height="182" rx="12" fill="#806346"/>
  <rect x="564" y="226" width="154" height="118" rx="10" fill="#3e2e1f"/>
  <rect x="618" y="242" width="16" height="70" rx="8" fill="#d9d0bf"/>
  <circle cx="626" cy="320" r="20" fill="#f1b260"/>

  <rect x="812" y="114" width="122" height="324" rx="12" fill="#403228"/>
  <rect x="840" y="150" width="66" height="258" rx="10" fill="#231a14"/>

  <ellipse cx="520" cy="230" rx="220" ry="180" fill="url(#clockGlow)"/>
</svg>
