<svg xmlns="http://www.w3.org/2000/svg" viewBox="0 0 960 540" width="960" height="540">
  <defs>
    <linearGradient id="sky" x1="0" x2="0" y1="0" y2="1">
      <stop offset="0%" stop-color="#5f6e7f"/>
      <stop offset="100%" stop-color="#2f4355"/>
    </linearGradient>
    <linearGradient id="floor" x1="0" x2="0" y1="0" y2="1">
      <stop offset="0%" stop-color="#384d61"/>
      <stop offset="100%" stop-color="#273848"/>
    </linearGradient>
    <radialGradient id="steam" cx="0.48" cy="0.3" r="0.55">
      <stop offset="0%" stop-color="#dde8f2" stop-opacity="0.22"/>
      <stop offset="100%" stop-color="#dde8f2" stop-opacity="0"/>
    </radialGradient>
  </defs>

  <rect width="960" height="540" fill="url(#sky)"/>
  <path d="M0 238L92 204L196 226L318 188L434 218L572 182L696 210L826 178L960 206V540H0Z" fill="#273a4d" opacity="0.66"/>
  <rect y="386" width="960" height="154" fill="url(#floor)"/>

  <g>
    <rect x="62" y="162" width="208" height="260" rx="12" fill="#586c7e"/>
    <rect x="96" y="206" width="140" height="100" rx="10" fill="#2d4255"/>
    <ellipse cx="182" cy="366" rx="52" ry="36" fill="#d7a15f"/>
  </g>

  <g>
    <rect x="286" y="182" width="276" height="240" rx="12" fill="#64727e"/>
    <rect x="320" y="218" width="212" height="112" rx="10" fill="#263a4a"/>
    <rect x="474" y="236" width="88" height="94" rx="8" fill="#3b5d7f"/>
    <circle cx="504" cy="278" r="11" fill="#82d7ff"/>
    <rect x="350" y="348" width="170" height="50" rx="8" fill="#6d7f8c"/>
  </g>

  <g>
    <rect x="606" y="144" width="290" height="278" rx="12" fill="#6b7f92"/>
    <rect x="772" y="202" width="106" height="220" rx="10" fill="#2b425a"/>
    <rect x="802" y="236" width="46" height="158" rx="8" fill="#152b41"/>
    <circle cx="825" cy="316" r="12" fill="#95e4ff"/>
  </g>

  <g opacity="0.34">
    <path d="M0 446H960" stroke="#49627a" stroke-width="4"/>
    <path d="M0 466H960" stroke="#334d63" stroke-width="3"/>
  </g>

  <g opacity="0.4">
    <ellipse cx="168" cy="250" rx="66" ry="34" fill="#deecf6"/>
    <ellipse cx="262" cy="226" rx="82" ry="40" fill="#deecf6"/>
    <ellipse cx="586" cy="220" rx="78" ry="36" fill="#deecf6"/>
  </g>

  <ellipse cx="480" cy="170" rx="430" ry="180" fill="url(#steam)"/>
</svg>
